# xmcd CD database file
#
# Track frame offsets:
#	150
#	26491
#	69793
#	100801
#	145245
#	164784
#	210278
#	231999
#	251228
#	293297
#
# Disc length: 4415 seconds
#
# Revision: 0
# Processed by: cddbd v1.5.2PL0 Copyright (c) Steve Scherf et al.
# Submitted via: CDex 1.60beta1
#
DISCID=87113d0a
DTITLE=kneebody - live volume one
DYEAR=2005
DGENRE=Jazz
TTITLE0=I'm Your General
TTITLE1=The Slip
TTITLE2=the Comedian/Wide Eyed
TTITLE3=Second Guess
TTITLE4=of course
TTITLE5=Coatrack
TTITLE6=Never Remember
TTITLE7=Clime Part One
TTITLE8=Marvikim
TTITLE9=Clime Part Two
EXTD=YEAR: 2005
EXTT0=
EXTT1=
EXTT2=
EXTT3=
EXTT4=
EXTT5=
EXTT6=
EXTT7=
EXTT8=
EXTT9=
PLAYORDER=
